# xmcd
# 
# Track frame offsets:
#     182
#     12517
#     25707
#     35257
#     52230
#     64850
#     81077
#     91575
#     107417
#     118942
#     129715
#     141992
#     158175
#     171387
#     189285
#     204290
# 
# Disc length: 2884
# 
# Revision: 2
# Processed by: cddbd v1.5.2PL0 Copyright (c) Steve Scherf et al.
# Submitted via: BonkEnc v1.0.8
# 
DISCID=d60b4210
DTITLE=Lynn Anderson - Listen To A Country Song
DYEAR=0
DGENRE=Country
TTITLE0=Listen To A Country Song
TTITLE1=Top Of The World
TTITLE2=Snowbird
TTITLE3=Blue Bayou
TTITLE4=I Fall To Pieces
TTITLE5=When I Dream
TTITLE6=Heartbreak Hotel
TTITLE7=You Needed Me
TTITLE8=That'll Be The Day
TTITLE9=Heaven's Just A Sin Away
TTITLE10=Stand By Your Man
TTITLE11=Devil Went Down To Georgia
TTITLE12=Rosegarden
TTITLE13=Midnight Train To Georgia
TTITLE14=Desperado
TTITLE15=You Don't Have To Say You Love Me
EXTD=
EXTT0=
EXTT1=
EXTT2=
EXTT3=
EXTT4=
EXTT5=
EXTT6=
EXTT7=
EXTT8=
EXTT9=
EXTT10=
EXTT11=
EXTT12=
EXTT13=
EXTT14=
EXTT15=
PLAYORDER=
